<svg width="23" height="14" viewBox="0 0 23 14" fill="none" xmlns="http://www.w3.org/2000/svg">
<g clip-path="url(#clip0_1_695)">
<path d="M6.978 0.000999586C7.58 -0.00400041 8.181 0.0539996 8.771 0.174C9.266 0.271 9.738 0.464 10.159 0.742C10.547 1.007 10.857 1.37 11.059 1.793C11.286 2.302 11.395 2.856 11.377 3.413C11.398 4.027 11.232 4.633 10.9 5.149C10.543 5.646 10.06 6.039 9.5 6.286C10.266 6.474 10.939 6.929 11.4 7.568C11.831 8.222 12.05 8.993 12.027 9.776C12.044 10.4 11.906 11.018 11.627 11.576C11.368 12.072 10.994 12.498 10.537 12.819C10.064 13.149 9.535 13.39 8.976 13.532C8.388 13.687 7.783 13.764 7.176 13.763H0.5V0.000999586H6.978ZM6.593 5.571C7.067 5.591 7.534 5.456 7.924 5.186C8.294 4.88 8.488 4.411 8.444 3.933C8.455 3.659 8.395 3.387 8.27 3.143C8.161 2.945 8.001 2.778 7.807 2.661C7.602 2.541 7.376 2.46 7.142 2.42C6.884 2.375 6.623 2.353 6.361 2.353H3.528V5.573L6.593 5.571ZM6.767 11.412C7.052 11.414 7.336 11.385 7.615 11.326C7.868 11.275 8.11 11.177 8.328 11.037C8.536 10.899 8.705 10.71 8.82 10.488C8.951 10.211 9.012 9.907 9 9.601C9.056 9.03 8.833 8.466 8.4 8.088C7.938 7.767 7.382 7.608 6.819 7.635H3.519V11.414L6.767 11.412ZM15.839 11.123C16.327 11.551 16.965 11.767 17.613 11.723C18.12 11.737 18.619 11.592 19.04 11.309C19.377 11.109 19.636 10.8 19.773 10.432H22.183C21.911 11.469 21.283 12.376 20.409 12.996C19.541 13.53 18.536 13.799 17.517 13.768C16.793 13.779 16.073 13.652 15.397 13.393C14.791 13.159 14.245 12.793 13.797 12.322C13.35 11.845 13.006 11.281 12.785 10.665C12.542 9.985 12.421 9.268 12.429 8.545C12.423 7.835 12.547 7.129 12.795 6.463C13.256 5.211 14.216 4.206 15.446 3.688C16.102 3.414 16.808 3.278 17.519 3.288C18.287 3.27 19.048 3.439 19.737 3.78C20.35 4.094 20.881 4.546 21.289 5.101C21.701 5.669 21.998 6.311 22.166 6.991C22.346 7.713 22.41 8.459 22.357 9.201H15.166C15.137 9.904 15.378 10.592 15.839 11.123ZM18.934 5.88C18.537 5.493 17.992 5.297 17.439 5.34C17.064 5.327 16.691 5.403 16.35 5.561C16.082 5.692 15.845 5.88 15.656 6.11C15.489 6.315 15.365 6.551 15.29 6.804C15.225 7.018 15.183 7.237 15.165 7.459H19.619C19.54 6.88 19.303 6.334 18.934 5.88ZM14.7 0.701H20.264V2.242H14.7V0.701Z" fill="white"/>
</g>
<defs>
<clipPath id="clip0_1_695">
<rect width="22" height="14" fill="white" transform="translate(0.5)"/>
</clipPath>
</defs>
</svg>
